<svg width="18" height="16" viewBox="0 0 18 16" fill="none" xmlns="http://www.w3.org/2000/svg">
<path d="M8.39542 7.40114L1.10025 4.32949C0.995739 4.28547 0.880127 4.36223 0.880127 4.47565V12.6874C0.880127 12.8949 1.00646 13.0816 1.19915 13.1586L8.27498 15.9889C8.37914 16.0306 8.49247 15.9539 8.49247 15.8417V7.5473C8.49247 7.48348 8.45422 7.42591 8.39542 7.40114Z" fill="#FFFFF"/>
<path d="M9.06157 6.52828L16.113 3.55927C16.2397 3.50592 16.2431 3.32754 16.1185 3.2694L9.21464 0.047601C9.0786 -0.015867 8.92147 -0.015867 8.78543 0.047601L1.88157 3.2694C1.75695 3.32754 1.76034 3.50592 1.88709 3.55927L8.9385 6.52828C8.97783 6.54487 9.02224 6.54487 9.06157 6.52828Z" fill="#FFFFF"/>
<path d="M9.50757 7.5473V15.8417C9.50757 15.9539 9.6209 16.0306 9.72506 15.9889L16.8009 13.1586C16.9935 13.0815 17.1199 12.8949 17.1199 12.6874V4.47565C17.1199 4.36223 17.0043 4.28547 16.8998 4.32949L9.60463 7.40114C9.54582 7.42591 9.50757 7.48348 9.50757 7.5473Z" fill="#FFFFF"/>
</svg>
