<svg width="8" height="8" viewBox="0 0 8 8" fill="none" xmlns="http://www.w3.org/2000/svg">
<g clip-path="url(#clip0_19_880)">
<path d="M7.04348 1.91285H6.2087L5.74783 1.2172C5.57391 0.956326 5.26957 0.799805 4.95652 0.799805H3.04348C2.73043 0.799805 2.42609 0.956326 2.25217 1.2172L1.7913 1.91285H0.956522C0.426087 1.91285 0 2.33894 0 2.86937V6.24328C0 6.77372 0.426087 7.1998 0.956522 7.1998H7.04348C7.57391 7.1998 8 6.77372 8 6.24328V2.86937C8 2.33894 7.57391 1.91285 7.04348 1.91285ZM4 6.4172C2.8087 6.4172 1.84348 5.45198 1.84348 4.26067C1.84348 3.06937 2.8087 2.11285 4 2.11285C5.1913 2.11285 6.15652 3.07807 6.15652 4.26937C6.15652 5.45198 5.1913 6.4172 4 6.4172ZM6.92174 3.26067C6.91304 3.26067 6.90435 3.26067 6.88696 3.26067H6.53913C6.38261 3.25198 6.26087 3.12154 6.26957 2.96502C6.27826 2.8172 6.3913 2.70415 6.53913 2.69546H6.88696C7.04348 2.68676 7.17391 2.8085 7.18261 2.96502C7.1913 3.12154 7.07826 3.25198 6.92174 3.26067Z" fill="#131313"/>
<path d="M4 3.06934C3.33913 3.06934 2.8 3.60847 2.8 4.26934C2.8 4.93021 3.33913 5.46064 4 5.46064C4.66087 5.46064 5.2 4.92151 5.2 4.26064C5.2 3.59977 4.66087 3.06934 4 3.06934Z" fill="#131313"/>
</g>
<defs>
<clipPath id="clip0_19_880">
<rect width="8" height="8" fill="white"/>
</clipPath>
</defs>
</svg>
