<svg width="18" height="22" viewBox="0 0 18 22" fill="none" xmlns="http://www.w3.org/2000/svg">
<path fill-rule="evenodd" clip-rule="evenodd" d="M13.25 6C13.25 6.414 12.914 6.75 12.5 6.75C12.086 6.75 11.75 6.414 11.75 6V4.5C11.75 2.981 10.519 1.75 9 1.75C7.481 1.75 6.25 2.981 6.25 4.5V6C6.25 6.414 5.914 6.75 5.5 6.75C5.086 6.75 4.75 6.414 4.75 6V4.5C4.75 2.153 6.653 0.25 9 0.25C11.347 0.25 13.25 2.153 13.25 4.5V6Z" fill="#949494"/>
<path fill-rule="evenodd" clip-rule="evenodd" d="M16.342 7.35L17.142 19.35C17.183 19.972 16.965 20.582 16.54 21.037C16.114 21.492 15.519 21.75 14.897 21.75H3.103C2.481 21.75 1.886 21.492 1.46 21.037C1.035 20.582 0.816999 19.972 0.857999 19.35L1.658 7.35C1.737 6.168 2.719 5.25 3.903 5.25H14.097C15.281 5.25 16.263 6.168 16.342 7.35ZM11.486 9.678C11.044 10.607 10.097 11.25 9 11.25C7.903 11.25 6.956 10.607 6.514 9.678C6.337 9.304 5.889 9.145 5.515 9.323C5.141 9.5 4.982 9.948 5.159 10.322C5.841 11.758 7.305 12.75 9 12.75C10.695 12.75 12.159 11.758 12.841 10.322C13.018 9.948 12.859 9.5 12.485 9.323C12.111 9.145 11.663 9.304 11.486 9.678Z" fill="#949494"/>
</svg>
