<svg width="18" height="18" viewBox="0 0 18 18" fill="none" xmlns="http://www.w3.org/2000/svg">
<path d="M15.9361 9.20729C15.8717 9.07557 15.8717 8.92451 15.9361 8.79283L16.5329 7.57205C16.8651 6.89234 16.6019 6.08219 15.9336 5.72759L14.7332 5.09072C14.6037 5.02204 14.515 4.89979 14.4896 4.75544L14.2549 3.41704C14.1242 2.67186 13.4348 2.17111 12.6859 2.27708L11.3405 2.46739C11.1953 2.48789 11.0517 2.44121 10.9463 2.3393L9.96974 1.39456C9.42596 0.868497 8.57409 0.868466 8.03035 1.39456L7.05373 2.33939C6.94835 2.44133 6.80476 2.48792 6.65957 2.46749L5.31418 2.27718C4.56496 2.17115 3.8759 2.67196 3.74519 3.41714L3.51044 4.75547C3.48509 4.89985 3.39631 5.02207 3.26684 5.09079L2.06654 5.72766C1.39823 6.08222 1.13498 6.89243 1.46723 7.57214L2.06395 8.79289C2.12832 8.92461 2.12832 9.07567 2.06395 9.20735L1.4672 10.4281C1.13495 11.1078 1.3982 11.918 2.06651 12.2726L3.26681 12.9094C3.39631 12.9781 3.48509 13.1004 3.51044 13.2447L3.74519 14.5831C3.86418 15.2615 4.44587 15.7372 5.1144 15.7372C5.18024 15.7372 5.24705 15.7325 5.31421 15.723L6.65961 15.5327C6.8047 15.5121 6.94839 15.5589 7.05376 15.6608L8.03035 16.6056C8.30228 16.8686 8.65109 17.0001 9.00003 17.0001C9.34887 17.0001 9.6979 16.8686 9.96971 16.6056L10.9463 15.6608C11.0517 15.5589 11.1953 15.5123 11.3405 15.5327L12.6859 15.723C13.4352 15.829 14.1242 15.3283 14.2549 14.5831L14.4897 13.2447C14.515 13.1004 14.6038 12.9781 14.7332 12.9094L15.9336 12.2726C16.6019 11.918 16.8651 11.1078 16.5329 10.4281L15.9361 9.20729ZM7.15438 4.84741C8.08725 4.84741 8.84622 5.60638 8.84622 6.53925C8.84622 7.47211 8.08725 8.23108 7.15438 8.23108C6.22151 8.23108 5.46255 7.47211 5.46255 6.53925C5.46255 5.60638 6.22151 4.84741 7.15438 4.84741ZM6.28114 12.3714C6.19105 12.4615 6.07295 12.5066 5.95489 12.5066C5.83683 12.5066 5.71871 12.4616 5.62864 12.3714C5.44846 12.1912 5.44846 11.8991 5.62864 11.7189L11.7189 5.62866C11.899 5.44847 12.1912 5.44847 12.3714 5.62866C12.5516 5.80884 12.5516 6.101 12.3714 6.28118L6.28114 12.3714ZM10.8456 13.1527C9.91274 13.1527 9.15378 12.3938 9.15378 11.4609C9.15378 10.528 9.91274 9.76907 10.8456 9.76907C11.7785 9.76907 12.5374 10.528 12.5374 11.4609C12.5374 12.3938 11.7785 13.1527 10.8456 13.1527Z" fill="#F16023"/>
<path d="M10.8457 10.6919C10.4217 10.6919 10.0767 11.0369 10.0767 11.4609C10.0767 11.8849 10.4216 12.2299 10.8457 12.2299C11.2697 12.2299 11.6147 11.8849 11.6147 11.4609C11.6147 11.0369 11.2697 10.6919 10.8457 10.6919Z" fill="#F16023"/>
<path d="M7.15449 5.77002C6.73046 5.77002 6.3855 6.11499 6.3855 6.53902C6.3855 6.96304 6.73046 7.30804 7.15449 7.30804C7.57852 7.30804 7.92352 6.96308 7.92352 6.53902C7.92349 6.11502 7.57852 5.77002 7.15449 5.77002Z" fill="#F16023"/>
</svg>
