<svg width="21" height="21" viewBox="0 0 21 21" fill="none" xmlns="http://www.w3.org/2000/svg">
<path fill-rule="evenodd" clip-rule="evenodd" d="M10.5 0C4.70859 0 0 4.70859 0 10.5C0 16.2914 4.70859 21 10.5 21C16.2914 21 21 16.2914 21 10.5C21 4.70859 16.2914 0 10.5 0Z" fill="#4BAE4F"/>
<path fill-rule="evenodd" clip-rule="evenodd" d="M15.5776 6.9604C15.8319 7.2147 15.8319 7.63306 15.5776 7.88735L9.42529 14.0397C9.29814 14.1668 9.12998 14.2325 8.96182 14.2325C8.79365 14.2325 8.62549 14.1668 8.49834 14.0397L5.42217 10.9635C5.16787 10.7092 5.16787 10.2909 5.42217 10.0366C5.67646 9.78228 6.09482 9.78228 6.34912 10.0366L8.96182 12.6493L14.6507 6.9604C14.905 6.702 15.3233 6.702 15.5776 6.9604Z" fill="white"/>
</svg>
