<svg width="52" height="52" viewBox="0 0 52 52" fill="none" xmlns="http://www.w3.org/2000/svg">
<path d="M51.9796 36.7702V28.0426C51.9796 26.7427 51.6088 25.4429 51.0511 24.3287L45.4948 14.8584C44.9376 13.7442 43.6379 13.0015 42.3382 13.0015H33.982C32.6822 13.0015 31.5678 14.1156 31.5678 15.4155V35.2846H29.7109V9.28759C29.7109 7.24497 28.0399 5.57373 25.997 5.57373H0V38.9985H5.57079C6.49926 35.8417 9.28466 33.4277 12.8126 33.4277C16.341 33.4277 19.3119 35.8417 20.0549 38.9985H33.6106C34.539 35.8417 37.3244 33.4277 40.8524 33.4277C43.8237 33.4277 46.2372 35.0989 47.3516 37.513C47.9088 38.4414 48.8233 38.9985 49.7517 38.9985C51.0511 38.9985 52.1655 37.8843 51.9796 36.7702ZM35.2817 26V16.7153H42.7094L48.0943 26H35.2817Z" fill="white"/>
<path d="M40.8525 35.2847C37.6959 35.2847 35.2817 37.6987 35.2817 40.8555C35.2817 44.0122 37.6959 46.4263 40.8525 46.4263C44.0092 46.4263 46.4233 44.0122 46.4233 40.8555C46.4233 37.6987 44.0092 35.2847 40.8525 35.2847ZM40.8525 43.4552C39.3669 43.4552 38.2531 42.341 38.2531 40.8555C38.2531 39.3699 39.367 38.2558 40.8525 38.2558C42.3382 38.2558 43.452 39.3699 43.452 40.8555C43.452 42.341 42.3382 43.4552 40.8525 43.4552Z" fill="white"/>
<path d="M12.9985 35.2847C9.84186 35.2847 7.42773 37.6987 7.42773 40.8555C7.42773 44.0122 9.84186 46.4263 12.9985 46.4263C16.1552 46.4263 18.5693 44.0122 18.5693 40.8555C18.5693 37.6987 16.1552 35.2847 12.9985 35.2847ZM12.9985 43.4552C11.5129 43.4552 10.3991 42.341 10.3991 40.8555C10.3991 39.3699 11.513 38.2558 12.9985 38.2558C14.4841 38.2558 15.598 39.3699 15.598 40.8555C15.598 42.341 14.4842 43.4552 12.9985 43.4552Z" fill="white"/>
<path d="M12.9985 41.7839C13.5113 41.7839 13.927 41.3682 13.927 40.8555C13.927 40.3427 13.5113 39.927 12.9985 39.927C12.4858 39.927 12.0701 40.3427 12.0701 40.8555C12.0701 41.3682 12.4858 41.7839 12.9985 41.7839Z" fill="white"/>
<path d="M40.8525 41.7839C41.3653 41.7839 41.781 41.3682 41.781 40.8555C41.781 40.3427 41.3653 39.927 40.8525 39.927C40.3398 39.927 39.9241 40.3427 39.9241 40.8555C39.9241 41.3682 40.3398 41.7839 40.8525 41.7839Z" fill="white"/>
</svg>
