<svg width="20" height="18" viewBox="0 0 20 18" fill="none" xmlns="http://www.w3.org/2000/svg">
<path d="M9.99999 17.25C9.90372 17.25 9.80748 17.2251 9.72125 17.1751C9.62758 17.121 7.40216 15.8257 5.14481 13.874C3.8069 12.7173 2.73892 11.57 1.97061 10.464C0.976383 9.03296 0.476405 7.65643 0.484471 6.37265C0.493912 4.87883 1.02764 3.47398 1.98745 2.41687C2.96347 1.34194 4.26599 0.75 5.65515 0.75C7.4355 0.75 9.06322 1.74973 10 3.33343C10.9368 1.74977 12.5646 0.75 14.3449 0.75C15.6573 0.75 16.9095 1.28411 17.8708 2.25396C18.9259 3.31827 19.5253 4.82208 19.5155 6.37973C19.5074 7.66128 18.9981 9.03572 18.0016 10.4648C17.2309 11.5702 16.1645 12.717 14.8318 13.8733C12.5827 15.8248 10.3733 17.1201 10.2803 17.1743C10.1936 17.2247 10.0968 17.25 9.99999 17.25Z" fill="#949494"/>
</svg>
